#!OML:ASF E:\emotionWalksFemale\Project 1\Capture day 1\Session 1\Female1.ASF
:FULLY-SPECIFIED
:DEGREES
1561
root -4.19702 15.3196 31.6249 353.409 41.5492 351.929
lowerback 9.9328 2.02572 3.63242
upperback -3.2585 3.29872 1.00489
thorax -8.91432 1.43045 -1.54472
lowerneck -12.3388 5.85191 2.3894
upperneck 23.2718 8.12041 -0.825305
head 9.50647 3.98657 0.291455
rclavicle -1.85118e-014 1.55052e-014
rhumerus -32.0513 5.50096 -70.7394
rradius 32.2762
rwrist 17.8236
rhand -4.12884 -53.6717
rfingers 7.12502
rthumb 21.6302 -82.4836
lclavicle -1.85118e-014 1.55052e-014
lhumerus -46.7899 5.01247 74.9824
lradius 37.4049
lwrist -10.3087
lhand -5.44561 -32.6022
lfingers 7.12502
lthumb 20.3652 -3.65003
rfemur 2.0892 13.034 33.2743
rtibia 17.4981
rfoot -14.7044 -33.9945
rtoes -7.794
lfemur -27.2608 2.40348 -20.5362
ltibia 57.1089
lfoot -13.8989 9.91194
ltoes -11.4004
1562
root -4.13451 15.3035 31.7307 353.473 41.589 351.976
lowerback 10.0109 2.12653 3.61067
upperback -3.25986 3.43398 0.998159
thorax -8.95555 1.4958 -1.56621
lowerneck -12.1458 5.79245 2.43028
upperneck 23.134 8.05487 -0.936144
head 9.42766 3.95145 0.22984
rclavicle -1.87852e-014 0
rhumerus -31.1594 5.98571 -70.7908
rradius 32.7453
rwrist 17.1482
rhand -4.08314 -53.9659
rfingers 7.12502
rthumb 21.6741 -82.7727
lclavicle -1.87852e-014 0
lhumerus -47.3134 5.2024 74.6544
lradius 37.802
lwrist -9.7266
lhand -5.43733 -32.238
lfingers 7.12502
lthumb 20.3732 -3.28671
rfemur 2.70411 13.0921 33.4979
rtibia 17.1382
rfoot -15.6595 -34.2967
rtoes -6.51352
lfemur -27.757 2.50631 -20.8935
ltibia 54.9723
lfoot -14.8128 10.5082
ltoes -11.3976
1563
root -4.06582 15.3049 31.8352 353.562 41.5701 351.985
lowerback 9.939 2.26467 3.75928
upperback -3.21523 3.62597 0.913956
thorax -8.84113 1.58111 -1.76607
lowerneck -12.0943 5.73683 2.62658
upperneck 23.0029 7.9694 -1.10417
head 9.3871 3.91123 0.126613
rclavicle 8.62228e-015 -7.95139e-016
rhumerus -30.1127 6.02179 -70.8059
rradius 33.0327
rwrist 16.9425
rhand -4.25709 -54.3136
rfingers 7.12502
rthumb 21.5071 -83.1396
lclavicle 8.62228e-015 -7.95139e-016
lhumerus -47.5879 5.28992 74.2681
lradius 38.07
lwrist -9.21472
lhand -5.40009 -32.0534
lfingers 7.12502
lthumb 20.409 -3.10589
rfemur 3.37055 12.939 33.6894
rtibia 16.5523
rfoot -15.3205 -34.4956
rtoes -6.03885
lfemur -28.2259 2.57975 -21.224
ltibia 52.7521
lfoot -15.6312 11.103
ltoes -5.96805
1564
root -3.9958 15.3135 31.942 353.724 41.5238 351.978
lowerback 9.75777 2.38876 3.83531
upperback -3.18625 3.78875 0.877949
thorax -8.68796 1.65946 -1.86319
lowerneck -12.0371 5.73471 2.86647
upperneck 22.7897 7.97769 -1.4062
head 9.32668 3.90393 -0.0192677
rclavicle 2.65378e-014 -1.11319e-014
rhumerus -28.9816 6.24087 -70.8533
rradius 33.2402
rwrist 16.7218
rhand -4.31322 -54.001
rfingers 7.12502
rthumb 21.4532 -82.8331
lclavicle 2.65378e-014 -1.11319e-014
lhumerus -47.8223 5.60264 73.8284
lradius 38.1888
lwrist -8.88519
lhand -5.39629 -32.2106
lfingers 7.12502
lthumb 20.4126 -3.26355
rfemur 4.13311 12.6642 33.8369
rtibia 15.6539
rfoot -14.0289 -34.3645
rtoes -6.77124
lfemur -28.7047 2.71323 -21.5011
ltibia 50.4885
lfoot -15.8237 12.2986
ltoes -13.7218
1565
root -3.92845 15.3028 32.0467 353.575 41.59 351.617
lowerback 9.74265 2.40953 4.11525
upperback -3.17071 3.8608 0.971718
thorax -8.64809 1.68368 -1.93029
lowerneck -11.9736 5.74419 2.89434
upperneck 22.6047 8.01966 -1.58329
head 9.26057 3.90838 -0.0840333
rclavicle -2.11333e-014 -3.97569e-016
rhumerus -27.9307 6.72743 -70.935
rradius 33.5434
rwrist 16.3045
rhand -4.52233 -53.6042
rfingers 7.12502
rthumb 21.2523 -82.4591
lclavicle -2.11333e-014 -3.97569e-016
lhumerus -48.1429 6.0518 73.4226
lradius 38.2795
lwrist -8.63762
lhand -5.6357 -32.1009
lfingers 7.12502
lthumb 20.1825 -3.12934
rfemur 5.08375 12.6697 34.3459
rtibia 14.487
rfoot -13.269 -34.5574
rtoes -7.17973
lfemur -29.1368 2.73253 -21.4581
ltibia 48.2283
lfoot -16.0216 12.9745
ltoes -16.7186
1566
root -3.8592 15.2967 32.15 353.298 41.5301 351.193
lowerback 9.83991 2.47446 4.46424
upperback -3.14107 4.00769 1.07503
thorax -8.64986 1.7396 -2.04342
lowerneck -12.1978 5.76038 2.87031
upperneck 22.7983 8.06501 -1.63497
head 9.37255 3.91774 -0.0811595
rclavicle -2.34814e-015 3.97569e-015
rhumerus -26.9451 7.05142 -71.0329
rradius 33.8456
rwrist 15.9251
rhand -4.87868 -53.2817
rfingers 7.12502
rthumb 20.91 -82.1748
lclavicle -2.34814e-015 3.97569e-015
lhumerus -48.5065 6.47179 73.0473
lradius 38.4741
lwrist -8.43707
lhand -5.66954 -31.7552
lfingers 7.12502
lthumb 20.15 -2.78019
rfemur 6.19782 12.9073 34.9516
rtibia 13.2115
rfoot -13.2902 -34.8798
rtoes -5.68345
lfemur -29.3767 2.75464 -21.2994
ltibia 45.8991
lfoot -16.2518 13.4747
ltoes -15.8296
